<svg width="24" height="25" viewBox="0 0 24 25" fill="none" xmlns="http://www.w3.org/2000/svg">
<g clip-path="url(#clip0_215_755)">
<path d="M17.9991 0.274525L14.8868 0.269531C11.3904 0.269531 9.13078 2.58779 9.13078 6.1759V8.89913H6.00158C5.93729 8.89913 5.87363 8.9118 5.81424 8.93641C5.75486 8.96102 5.7009 8.99709 5.65545 9.04256C5.61001 9.08802 5.57396 9.142 5.54939 9.2014C5.52481 9.2608 5.51217 9.32447 5.51221 9.38875V13.3344C5.51221 13.4642 5.56377 13.5887 5.65554 13.6804C5.74731 13.7722 5.87179 13.8238 6.00158 13.8238H9.13078V23.7799C9.13078 23.9097 9.18234 24.0342 9.27412 24.1259C9.36589 24.2177 9.49036 24.2693 9.62015 24.2693H13.7029C13.8327 24.2693 13.9571 24.2177 14.0489 24.1259C14.1407 24.0342 14.1922 23.9097 14.1922 23.7799V13.8238H17.851C17.9808 13.8238 18.1053 13.7722 18.1971 13.6804C18.2888 13.5887 18.3404 13.4642 18.3404 13.3344L18.3419 9.38875C18.3418 9.25894 18.2901 9.13448 18.1983 9.04269C18.1065 8.95089 17.9821 8.89927 17.8523 8.89913H14.1922V6.59062C14.1922 5.48105 14.4567 4.91778 15.902 4.91778L17.9986 4.91703C18.1283 4.91696 18.2527 4.86537 18.3445 4.77361C18.4362 4.68184 18.4877 4.55741 18.4877 4.42766V0.763893C18.4877 0.634234 18.4362 0.509875 18.3446 0.418122C18.253 0.326369 18.1287 0.274723 17.9991 0.274525Z" fill="white"/>
</g>
<defs>
<clipPath id="clip0_215_755">
<rect width="24" height="24" fill="white" transform="translate(0 0.269531)"/>
</clipPath>
</defs>
</svg>
