<svg width="37" height="37" viewBox="0 0 37 37" fill="none" xmlns="http://www.w3.org/2000/svg">
<path d="M26.3646 23.492C26.1153 21.7978 25.267 20.249 23.9735 19.1267C22.68 18.0044 21.0271 17.3829 19.3146 17.375H17.7186C16.0062 17.3829 14.3533 18.0044 13.0598 19.1267C11.7663 20.249 10.918 21.7978 10.6686 23.492L9.90365 28.841C9.87921 29.0139 9.89536 29.1901 9.95081 29.3557C10.0063 29.5213 10.0995 29.6717 10.2231 29.795C10.5231 30.095 12.3636 31.625 18.5181 31.625C24.6726 31.625 26.5086 30.101 26.8131 29.795C26.9368 29.6717 27.03 29.5213 27.0855 29.3557C27.1409 29.1901 27.1571 29.0139 27.1327 28.841L26.3646 23.492Z" fill="white"/>
<path d="M11.8559 18.1999C10.4062 19.5364 9.46294 21.3328 9.18589 23.2849L8.63089 27.1249C4.17589 27.0949 2.82589 25.4749 2.60089 25.1449C2.51392 25.0251 2.45185 24.889 2.41836 24.7447C2.38487 24.6004 2.38063 24.4509 2.40589 24.3049L2.73589 22.4449C2.90783 21.4729 3.31163 20.5566 3.91305 19.7738C4.51448 18.991 5.2958 18.3647 6.19076 17.9482C7.08573 17.5316 8.06795 17.337 9.05414 17.3808C10.0403 17.4246 11.0014 17.7056 11.8559 18.1999Z" fill="white"/>
<path d="M34.6256 24.3049C34.6509 24.4509 34.6467 24.6004 34.6132 24.7447C34.5797 24.889 34.5176 25.0251 34.4306 25.1449C34.2056 25.4749 32.8556 27.0949 28.4006 27.1249L27.8456 23.2849C27.5686 21.3328 26.6253 19.5364 25.1756 18.1999C26.0301 17.7056 26.9912 17.4246 27.9774 17.3808C28.9636 17.337 29.9458 17.5316 30.8408 17.9482C31.7357 18.3647 32.517 18.991 33.1185 19.7738C33.7199 20.5566 34.1237 21.4729 34.2956 22.4449L34.6256 24.3049Z" fill="white"/>
<path d="M12.1106 14.9C11.733 15.4355 11.2318 15.8719 10.6494 16.1723C10.0671 16.4726 9.42085 16.6279 8.76563 16.625C8.11201 16.625 7.46775 16.4697 6.88594 16.1718C6.30413 15.874 5.80143 15.4422 5.41925 14.9119C5.03708 14.3817 4.78637 13.7682 4.6878 13.1221C4.58923 12.4759 4.64562 11.8156 4.85231 11.1956C5.059 10.5755 5.41008 10.0134 5.87662 9.55564C6.34316 9.09787 6.9118 8.75752 7.53568 8.56263C8.15957 8.36775 8.82083 8.3239 9.46498 8.43472C10.1091 8.54553 10.7177 8.80783 11.2406 9.2C11.0902 9.78815 11.0146 10.3929 11.0156 11C11.0168 12.3757 11.3955 13.7247 12.1106 14.9Z" fill="white"/>
<path d="M32.3909 12.5C32.3913 13.0418 32.2849 13.5784 32.0777 14.079C31.8705 14.5797 31.5667 15.0346 31.1836 15.4177C30.8005 15.8008 30.3456 16.1046 29.8449 16.3118C29.3443 16.519 28.8077 16.6254 28.2659 16.625C27.6107 16.6279 26.9644 16.4726 26.3821 16.1723C25.7997 15.8719 25.2985 15.4355 24.9209 14.9C25.636 13.7247 26.0148 12.3757 26.0159 11C26.0169 10.3929 25.9413 9.78815 25.7909 9.2C26.4037 8.74037 27.1325 8.46047 27.8954 8.39167C28.6584 8.32287 29.4255 8.4679 30.1107 8.81049C30.7958 9.15308 31.3721 9.67971 31.7748 10.3314C32.1776 10.983 32.3909 11.7339 32.3909 12.5Z" fill="white"/>
<path d="M18.5156 16.625C21.6222 16.625 24.1406 14.1066 24.1406 11C24.1406 7.8934 21.6222 5.375 18.5156 5.375C15.409 5.375 12.8906 7.8934 12.8906 11C12.8906 14.1066 15.409 16.625 18.5156 16.625Z" fill="white"/>
</svg>
