<svg width="37" height="37" viewBox="0 0 37 37" fill="none" xmlns="http://www.w3.org/2000/svg">
<g clip-path="url(#clip0_93_253)">
<path d="M18.5156 12.4531C21.8164 12.4531 24.4922 9.77733 24.4922 6.47656C24.4922 3.1758 21.8164 0.5 18.5156 0.5C15.2149 0.5 12.5391 3.1758 12.5391 6.47656C12.5391 9.77733 15.2149 12.4531 18.5156 12.4531Z" fill="white"/>
<path d="M22.9077 13.2628C21.6423 14.0846 20.134 14.5625 18.516 14.5625C16.8981 14.5625 15.3898 14.0846 14.1244 13.2628C12.7255 13.7974 11.4285 14.5861 10.3008 15.5983L18.516 18.6791L26.7313 15.5983C25.6035 14.5861 24.3065 13.7973 22.9077 13.2628Z" fill="white"/>
<path d="M31.1719 22.2969H30.4688C29.8863 22.2969 29.4141 22.7691 29.4141 23.3516V26.1641C29.4141 26.7465 29.8863 27.2188 30.4688 27.2188H31.1719C32.531 27.2188 33.6328 26.117 33.6328 24.7578C33.6328 23.3987 32.531 22.2969 31.1719 22.2969Z" fill="white"/>
<path d="M6.66488 16.9726C6.38053 17.1697 6.21094 17.4935 6.21094 17.8394V20.1875H6.5625C8.30716 20.1875 9.72656 21.6069 9.72656 23.3516V26.1641C9.72656 27.9088 8.30716 29.3282 6.5625 29.3282H6.21094V31.5504C6.21094 31.9901 6.48368 32.3836 6.89529 32.5379L17.4609 36.5V20.5363L7.63596 16.8519C7.31203 16.7303 6.94915 16.7754 6.66488 16.9726Z" fill="white"/>
<path d="M27.3047 26.1641V23.3516C27.3047 21.6069 28.7241 20.1875 30.4688 20.1875H30.8203V17.8394C30.8203 17.4935 30.6507 17.1697 30.3664 16.9726C30.082 16.7754 29.7191 16.7303 29.3953 16.8519L19.5703 20.5363V36.5L30.136 32.5379C30.5476 32.3836 30.8203 31.9901 30.8203 31.5504V29.3282H30.4688C28.7241 29.3282 27.3047 27.9088 27.3047 26.1641Z" fill="white"/>
<path d="M7.61719 26.1641V23.3516C7.61719 22.7691 7.14497 22.2969 6.5625 22.2969H5.85938C4.50023 22.2969 3.39844 23.3987 3.39844 24.7578C3.39844 26.117 4.50023 27.2188 5.85938 27.2188H6.5625C7.14497 27.2188 7.61719 26.7465 7.61719 26.1641Z" fill="white"/>
</g>
<defs>
<clipPath id="clip0_93_253">
<rect width="36" height="36" fill="white" transform="translate(0.515625 0.5)"/>
</clipPath>
</defs>
</svg>
